<?xml version="1.0" encoding="utf-8"?>
<!-- Generator: Adobe Illustrator 18.1.1, SVG Export Plug-In . SVG Version: 6.00 Build 0)  -->
<svg version="1.1" id="Layer_1" xmlns="http://www.w3.org/2000/svg" xmlns:xlink="http://www.w3.org/1999/xlink" x="0px" y="0px"
	 viewBox="0 0 500 500" enable-background="new 0 0 500 500" xml:space="preserve">
<g>
	<path fill="#3D96CE" d="M500,250C499.5,389.2,387.2,501.2,247.7,500C109.9,498.8-0.7,387,0,248.6C0.7,110.3,112.8-1.1,252,0
		C390,1.1,499.6,112.7,500,250z M38,249.9c0,116.8,94.2,211.5,210.6,212c118.3,0.5,213.3-94.1,213.2-212.2
		c0-116.6-94.3-211.2-210.9-211.6C133.1,37.7,38.1,132.5,38,249.9z"/>
	<path fill="#3D96CE" d="M140.6,175.6c2.8,6.2,5.2,12.3,8.2,18.1c10.8,20.3,26,36.8,43.8,51.1c19.5,15.6,41.2,27.4,64.3,36.9
		c0.4,0.2,0.8,0.3,2,0.7c0-3.8,0.1-7.4-0.1-11c0-0.6-1.3-1.3-2.1-1.7c-23.8-10.7-45.7-24.6-65-42.2c-17.1-15.6-31.1-33.5-39.7-55.2
		c-7.6-19.1-9.9-38.9-6.6-59.2c1.2-7.4,3-14.6,4.5-22c0.3,0,0.6,0,0.9,0c0.3,1.2,0.5,2.4,0.8,3.6c4.3,20.1,13.1,38.3,24.5,55.3
		c18.1,27,41.6,48.5,68.5,66.6c15,10,30.6,18.8,47,26.5c1,0.5,2.1,1,3.3,1.6c-0.4,1.4-0.8,2.7-1.3,4c-9.2,25.1-13.3,51-11.9,77.7
		c1,19.6,5.1,38.6,12.3,56.9c0.8,2.1,0.4,3.1-1.2,4.4c-21.4,17.2-42.8,34.4-64.2,51.6c-0.2,0.2-0.5,0.2-1.1,0.6
		c-0.5-2.6-1-5-1.4-7.5c-0.8-4.5-1.4-9.1-2.4-13.5c-0.5-2.1,0.2-3.2,1.5-4.6c9.8-10.2,19.5-20.4,29.3-30.6c0.4-0.4,0.8-0.9,1.5-1.7
		c-0.9-0.5-1.6-0.9-2.3-1.3c-26.5-13.5-50.5-30.4-70.7-52.3c-15.8-17.1-28.2-36.2-33.9-59c-1.7-6.7-2.4-13.7-3.5-20.6
		c-0.1-0.6,0-1.3,0-2.6c5.4,10.3,11.8,19.2,19,27.4c17.5,19.9,38.5,35.3,61.9,47.4c9.1,4.7,18.7,8.6,28.1,12.9
		c0.6,0.3,1.3,0.4,1.7,0.6c0-4.5,0.1-9-0.1-13.5c0-0.6-1.3-1.5-2.1-1.8c-18.4-7.1-35.7-16.1-51.8-27.3c-16.8-11.6-31.7-25.1-43.3-42
		c-13.8-20.1-20.5-42.2-19.1-66.6C140,180.7,140.4,178.2,140.6,175.6z"/>
	<path fill="#3D96CE" d="M371.6,260.8c-3.5-2.2-6.5-4.3-9.7-6.1c-5.1-2.7-9.7-2.5-14.2,1.8c-10.6,10-16.4,22.1-17.1,36.6
		c-0.8,16.1,4.1,30.8,11.1,45c0.9,1.9,1.9,3.8,2.9,5.7c0.1,0.1,0.1,0.3,0.3,1c-14.2,12.3-28.5,24.7-43.4,37.6
		c-2.1-5.9-4.2-11.1-5.8-16.4c-5.7-19.4-6.9-39.2-5.5-59.2c1.5-20.7,6.1-40.8,13-60.3c0.9-2.5,0.5-4-1.4-5.5
		c-5.2-4-10.4-8.2-15.7-12.1c-17.6-12.8-34.9-25.8-50.5-41c-17.9-17.4-33.3-36.5-43-59.7c-7.6-18.3-10.1-37.2-7.1-56.8
		c0.1-0.4,0.2-0.8,0.5-1.7c1.6,4.1,2.9,7.8,4.4,11.3c15.5,35.7,39.1,65,70.6,87.9c17.3,12.6,36.1,22.3,56.3,29.4
		c8.6,3,15.8,8.5,22.8,14.2c11,9,20.9,18.9,28.1,31.4c2.3,3.9,4.1,8,4.1,12.7C372.3,257.9,371.8,259.3,371.6,260.8z"/>
</g>
</svg>
