<?xml version="1.0" encoding="utf-8"?>
<!-- Generator: Adobe Illustrator 18.1.1, SVG Export Plug-In . SVG Version: 6.00 Build 0)  -->
<svg version="1.1" id="Layer_1" xmlns="http://www.w3.org/2000/svg" xmlns:xlink="http://www.w3.org/1999/xlink" x="0px" y="0px"
	 viewBox="0 0 500 500" enable-background="new 0 0 500 500" xml:space="preserve">
<g>
	<path fill="#CE3D3D" d="M500,250.2c-0.6,139.3-113.1,251-252.4,249.7C109.6,498.7-0.8,386.7,0,248.5C0.8,109.7,113.4-1.3,252.2,0
		C391.8,1.4,499.7,114,500,250.2z M249.9,461.9c117.2,0,211.8-94.7,212-212.2C462,133.7,366.8,38.1,251,38
		C133.1,38,38.1,132.5,38,249.8C38,366.9,132.9,461.9,249.9,461.9z"/>
	<path fill="#CE3D3D" d="M78.8,196.5c1.8,0,2.8,0,3.7,0c40.6,0,81.2,0,121.8,0.1c2.4,0,3.5-0.6,4.3-2.9
		c13.3-37.6,26.7-75.2,40.1-112.8c0.3-0.8,0.6-1.6,1.2-3.1c0.5,1.4,0.8,2.3,1.2,3.1c13.4,37.6,26.8,75.2,40.1,112.8
		c0.8,2.4,1.9,2.9,4.3,2.9c40.6-0.1,81.2-0.1,121.8-0.1c1,0,1.9,0,3.7,0c-28.8,23.4-57,46.4-85.3,69.4
		c-28.6-20.9-57.2-41.7-85.8-62.6c-28.6,20.9-57.1,41.7-85.8,62.6C135.9,242.9,107.7,219.9,78.8,196.5z"/>
	<path fill="#CE3D3D" d="M141.2,410.3c1.5-5,3-10.1,4.5-15.1c2.8-9.2,5.5-18.4,8.4-27.5c0.4-1.2,1.3-2.5,2.3-3.3
		c30.9-23.7,61.8-47.3,92.7-70.9c0.2-0.2,0.5-0.3,0.9-0.5c6.7,5.1,13.5,10.3,20.3,15.5c24.4,18.6,48.8,37.3,73.1,55.9
		c0.9,0.7,1.8,1.8,2.1,2.8c4.4,14.1,8.6,28.1,12.9,42.2c0.1,0.2,0,0.5,0.1,1.4c-36.4-27.8-72.4-55.3-108.7-83
		c-36.1,27.6-72.2,55.1-108.3,82.7C141.5,410.5,141.3,410.4,141.2,410.3z"/>
	<path fill="#CE3D3D" d="M249.9,229.4c20.8,15.9,41.2,31.8,62,47.2c6,4.4,9.6,9.5,11.5,16.7c2.9,11.6,6.8,22.9,9.9,34.8
		c-27.7-21.2-55.5-42.4-83.3-63.6c-27.8,21.2-55.5,42.4-83.9,64.1c0.9-3.2,1.6-5.6,2.4-8.1c3.6-11.7,7.1-23.5,10.7-35.1
		c0.4-1.4,1.5-2.8,2.6-3.7c21.2-16.3,42.5-32.5,63.7-48.7C247,231.7,248.4,230.5,249.9,229.4z"/>
</g>
</svg>
